# xmcd
#
# Track frame offsets:
#	150
#	12822
#	28102
#	43410
#	61037
#	77927
#	95757
#	109467
#	124620
#	140935
#
# Disc length: 2056 seconds
#
# Revision: 4
# Processed by: cddbd v1.5.2PL0 Copyright (c) Steve Scherf et al.
# Submitted via: MusicManager 7.3.0.0 
#
DISCID=8f08060a
DTITLE=Eddy Raven - The Best Of Eddy Raven
DYEAR=1992
DGENRE=
TTITLE0=Bayou Boys
TTITLE1=In A Letter To You
TTITLE2=Rock Me In The Rhythm Of Your Love
TTITLE3=Sooner Or Later
TTITLE4=Somebody's Tearin' The Flag
TTITLE5=Island
TTITLE6=Torn Up
TTITLE7=Zydeco Lady
TTITLE8=Like A Hurricane
TTITLE9=Too Much Candy For A Dime
EXTD=
EXTT0=
EXTT1=
EXTT2=
EXTT3=
EXTT4=
EXTT5=
EXTT6=
EXTT7=
EXTT8=
EXTT9=
PLAYORDER=
